<svg width="57" height="56" viewBox="0 0 57 56" fill="none" xmlns="http://www.w3.org/2000/svg">
<g id="archive-24">
<g id="Union">
<path fill-rule="evenodd" clip-rule="evenodd" d="M6.75002 4.66663C4.49486 4.66663 2.66669 6.4948 2.66669 8.74996V16.9166C2.66669 19.1718 4.49486 21 6.75002 21H49.9167C52.1719 21 54 19.1718 54 16.9166V8.74996C54 6.4948 52.1719 4.66663 49.9167 4.66663H6.75002ZM49.9167 8.16663H6.75002C6.42785 8.16663 6.16669 8.42779 6.16669 8.74996V16.9166C6.16669 17.2388 6.42785 17.5 6.75002 17.5H49.9167C50.2389 17.5 50.5 17.2388 50.5 16.9166V8.74996C50.5 8.42779 50.2389 8.16663 49.9167 8.16663Z" fill="#BDBDBD"/>
<path d="M6.75002 23.3333C7.71652 23.3333 8.50002 24.1168 8.50002 25.0833V47.25C8.50002 47.5721 8.76119 47.8333 9.08335 47.8333H47.5834C47.9055 47.8333 48.1667 47.5721 48.1667 47.25V25.0833C48.1667 24.1168 48.9502 23.3333 49.9167 23.3333C50.8832 23.3333 51.6667 24.1168 51.6667 25.0833V47.25C51.6667 49.5051 49.8385 51.3333 47.5834 51.3333H9.08335C6.82819 51.3333 5.00002 49.5051 5.00002 47.25V25.0833C5.00002 24.1168 5.78352 23.3333 6.75002 23.3333Z" fill="#BDBDBD"/>
<path d="M23.0834 26.8333C22.1169 26.8333 21.3334 27.6168 21.3334 28.5833C21.3334 29.5498 22.1169 30.3333 23.0834 30.3333H33.5834C34.5499 30.3333 35.3334 29.5498 35.3334 28.5833C35.3334 27.6168 34.5499 26.8333 33.5834 26.8333H23.0834Z" fill="#BDBDBD"/>
</g>
</g>
</svg>
