<svg width="24" height="13" viewBox="0 0 24 13" fill="none" xmlns="http://www.w3.org/2000/svg">
<path d="M16.6879 0.829508C16.5373 0.835836 16.3922 0.881845 16.271 0.96171C16.1498 1.04158 16.0579 1.15171 16.0069 1.27816C15.9559 1.40461 15.9482 1.5417 15.9847 1.67207C16.0212 1.80244 16.1002 1.92024 16.2119 2.01054L20.8611 5.81528H1.4946C1.46817 5.81415 1.44168 5.81415 1.41526 5.81528C1.01641 5.83372 0.672505 6.17403 0.693278 6.52956C0.714051 6.88506 1.09576 7.19169 1.4946 7.17311H20.8611L16.2119 10.9708C16.1326 11.0297 16.0676 11.1024 16.0209 11.1844C15.9741 11.2664 15.9465 11.356 15.9397 11.4478C15.933 11.5396 15.9473 11.6317 15.9817 11.7184C16.0161 11.8052 16.0699 11.8848 16.1398 11.9524C16.2098 12.02 16.2944 12.0743 16.3886 12.1119C16.4828 12.1495 16.5846 12.1696 16.6878 12.171C16.791 12.1725 16.8934 12.1552 16.9889 12.1203C17.0844 12.0854 17.1709 12.0336 17.2433 11.9679L23.3365 6.98924C23.4136 6.92566 23.4752 6.84855 23.5173 6.76275C23.5594 6.67695 23.5811 6.58431 23.5811 6.49066C23.5811 6.39701 23.5594 6.30437 23.5173 6.21857C23.4752 6.13277 23.4136 6.05565 23.3365 5.99208L17.2433 1.01338C17.1692 0.951221 17.0818 0.902925 16.9865 0.871345C16.8911 0.839764 16.7896 0.825538 16.6879 0.829508Z" fill="url(#paint0_linear_31_320)"/>
<defs>
<linearGradient id="paint0_linear_31_320" x1="-1.76821" y1="11.5117" x2="13.8209" y2="11.5117" gradientUnits="userSpaceOnUse">
<stop stop-color="#CE00FF"/>
<stop offset="0.0001" stop-color="#D738FD"/>
<stop offset="1" stop-color="#0BB6FF"/>
</linearGradient>
</defs>
</svg>
