<svg width="57" height="56" viewBox="0 0 57 56" fill="none" xmlns="http://www.w3.org/2000/svg">
<g id="file-media-24">
<path id="Union" fill-rule="evenodd" clip-rule="evenodd" d="M5.91669 9.33337C5.59453 9.33337 5.33336 9.59454 5.33336 9.91671V46.0834C5.33336 46.4055 5.59453 46.6667 5.91669 46.6667H13.3321L33.3325 25.6137C34.9139 23.949 37.5566 23.9151 39.1802 25.5387L52 38.3585V9.91671C52 9.59454 51.7389 9.33337 51.4167 9.33337H5.91669ZM14.0741 50.1667H14.092H51.4167C53.6718 50.1667 55.5 48.3385 55.5 46.0834V42.5879V42.5789V9.91671C55.5 7.66154 53.6718 5.83337 51.4167 5.83337H5.91669C3.66153 5.83337 1.83336 7.66154 1.83336 9.91671V46.0834C1.83336 48.3385 3.66153 50.1667 5.91669 50.1667H14.0741ZM52 46.0834V43.3083L36.7054 28.0136C36.4734 27.7817 36.0959 27.7865 35.87 28.0243L18.1597 46.6667H51.4167C51.7389 46.6667 52 46.4055 52 46.0834ZM21.6667 21.5834C21.6667 23.8385 19.8385 25.6667 17.5834 25.6667C15.3282 25.6667 13.5 23.8385 13.5 21.5834C13.5 19.3282 15.3282 17.5 17.5834 17.5C19.8385 17.5 21.6667 19.3282 21.6667 21.5834ZM25.1667 21.5834C25.1667 25.7715 21.7715 29.1667 17.5834 29.1667C13.3952 29.1667 10 25.7715 10 21.5834C10 17.3952 13.3952 14 17.5834 14C21.7715 14 25.1667 17.3952 25.1667 21.5834Z" fill="#BDBDBD"/>
</g>
</svg>
