<?xml version="1.0" encoding="UTF-8"?>
<svg id="Layer_1" data-name="Layer 1" xmlns="http://www.w3.org/2000/svg" viewBox="0 0 40 40">
  <defs>
    <style>
      .cls-1 {
        fill: #fff;
      }
    </style>
  </defs>
  <g id="Twitter">
    <path id="Vector_3" data-name="Vector 3" class="cls-1" d="M29,13.78c-.62,.29-1.3,.5-2.01,.59,.73-.47,1.27-1.21,1.53-2.09-.68,.44-1.43,.75-2.21,.91-.33-.38-.72-.68-1.16-.89-.44-.21-.91-.31-1.39-.31-1.93,0-3.48,1.7-3.48,3.79,0,.29,.03,.59,.08,.87-2.89-.16-5.47-1.66-7.18-3.96-.31,.58-.48,1.24-.47,1.91,0,1.31,.62,2.47,1.55,3.15-.55-.02-1.09-.19-1.58-.48v.05c0,1.84,1.2,3.36,2.79,3.71-.3,.08-.61,.13-.92,.13-.23,0-.44-.02-.66-.06,.44,1.5,1.73,2.59,3.26,2.62-1.2,1.02-2.7,1.62-4.33,1.62-.29,0-.56-.01-.84-.05,1.54,1.08,3.38,1.7,5.35,1.7,6.41,0,9.91-5.76,9.91-10.77,0-.16,0-.33,0-.49,.68-.54,1.27-1.21,1.75-1.96Z"/>
  </g>
</svg>