<?xml version="1.0" encoding="UTF-8"?>
<svg id="Layer_1" data-name="Layer 1" xmlns="http://www.w3.org/2000/svg" viewBox="0 0 40 40">
  <defs>
    <style>
      .cls-1 {
        fill: #fff;
      }
    </style>
  </defs>
  <g id="Instagram">
    <path id="Vector_2" data-name="Vector 2" class="cls-1" d="M20.5,16.65c-2.13,0-3.85,1.72-3.85,3.85s1.72,3.85,3.85,3.85,3.85-1.72,3.85-3.85-1.72-3.85-3.85-3.85Zm0,6.35c-1.38,0-2.5-1.12-2.5-2.5s1.12-2.5,2.5-2.5,2.5,1.12,2.5,2.5-1.12,2.5-2.5,2.5Zm4.01-7.4c-.5,0-.9,.4-.9,.9s.4,.9,.9,.9,.9-.4,.9-.9c0-.12-.02-.24-.07-.34-.05-.11-.11-.21-.19-.29-.08-.08-.18-.15-.29-.19-.11-.05-.23-.07-.34-.07Zm3.5,4.9c0-1.04,0-2.06-.05-3.1-.06-1.2-.33-2.27-1.21-3.14-.88-.88-1.94-1.15-3.14-1.21-1.04-.06-2.06-.05-3.1-.05s-2.06,0-3.1,.05c-1.2,.06-2.27,.33-3.14,1.21-.88,.88-1.15,1.94-1.21,3.14-.06,1.04-.05,2.06-.05,3.1s0,2.06,.05,3.1c.06,1.2,.33,2.27,1.21,3.14,.88,.88,1.94,1.15,3.14,1.21,1.04,.06,2.06,.05,3.1,.05s2.06,0,3.1-.05c1.2-.06,2.27-.33,3.14-1.21,.88-.88,1.15-1.94,1.21-3.14,.06-1.03,.05-2.06,.05-3.1Zm-1.65,4.42c-.14,.34-.3,.6-.57,.86-.26,.26-.52,.43-.86,.57-.99,.39-3.33,.3-4.42,.3s-3.44,.09-4.43-.3c-.34-.14-.6-.3-.86-.57-.26-.26-.43-.52-.57-.86-.39-.99-.3-3.33-.3-4.43s-.09-3.44,.3-4.43c.14-.34,.3-.6,.57-.86,.26-.26,.52-.43,.86-.57,.99-.39,3.33-.3,4.43-.3s3.44-.09,4.43,.3c.34,.14,.6,.3,.86,.57,.26,.26,.43,.52,.57,.86,.39,.99,.3,3.33,.3,4.43s.09,3.44-.3,4.42Z"/>
  </g>
</svg>