<svg width="56" height="56" viewBox="0 0 56 56" fill="none" xmlns="http://www.w3.org/2000/svg">
<g id="shield-check-24">
<g id="Union">
<path d="M38.5708 22.8207C39.2542 22.1373 39.2542 21.0293 38.5708 20.3459C37.8874 19.6624 36.7793 19.6624 36.0959 20.3459L25.6667 30.7751L21.0708 26.1792C20.3874 25.4958 19.2793 25.4958 18.5959 26.1792C17.9125 26.8626 17.9125 27.9706 18.5959 28.6541L24.4292 34.4874C25.1127 35.1708 26.2207 35.1708 26.9041 34.4874L38.5708 22.8207Z" fill="#E0E0E0"/>
<path fill-rule="evenodd" clip-rule="evenodd" d="M29.2597 1.48543C28.4409 1.21986 27.5591 1.21986 26.7403 1.48543L7.49029 7.72867C5.80879 8.27403 4.66669 9.83856 4.66669 11.6105V23.3333C4.6667 37.775 13.4652 48.3113 26.6023 53.2684C27.5022 53.6079 28.4978 53.6079 29.3977 53.2684C42.5348 48.3113 51.3334 37.775 51.3334 23.3333V11.6111C51.3334 9.8398 50.1918 8.27421 48.5098 7.72867L29.2597 1.48543ZM27.8201 4.81471C27.937 4.77677 28.063 4.77677 28.18 4.81471L47.43 11.058C47.6719 11.1364 47.8334 11.3598 47.8334 11.6111V23.3333C47.8334 36.0764 40.1783 45.4597 28.1621 49.9937C28.0586 50.0328 27.9415 50.0328 27.838 49.9937C15.8218 45.4597 8.1667 36.0764 8.16669 23.3333L8.16669 11.6105C8.16669 11.3597 8.32758 11.1366 8.57006 11.058L27.8201 4.81471Z" fill="#E0E0E0"/>
</g>
</g>
</svg>
